<svg xmlns="http://www.w3.org/2000/svg" width="100" height="100"><style>@media(prefers-color-scheme: dark){#A{fill:#292423}#B{fill:#46ecd4}}</style><path id="A" d="M96.95 50c.015.609-.283 3.065-.42 3.662s-.974 2.948-1.224 3.514-1.448 2.75-1.772 3.276-1.733 2.527-2.101 3.01l-2.286 2.753-2.409 2.504-2.525 2.247-2.639 1.974-2.727 1.698-2.746 1.463-2.674 1.329-2.521 1.344-2.343 1.519a61.85 61.85 0 0 0-2.212 1.798l-2.199 2.075-2.335 2.204-2.591 2.059c-.456.302-2.387 1.372-2.891 1.566s-2.601.708-3.129.747-2.687-.147-3.206-.279c-.529-.134-2.599-1.034-3.08-1.322-.495-.294-2.347-1.77-2.775-2.171s-2.01-2.206-2.382-2.659l-2.032-2.706-1.849-2.35c-.301-.328-1.557-1.5-1.903-1.737-.336-.23-1.798-.935-2.189-1.066-.409-.137-2.159-.474-2.614-.543l-3.034-.316-3.298-.437c-.552-.109-2.766-.664-3.293-.858-.52-.192-2.533-1.159-2.989-1.457a24.93 24.93 0 0 1-2.44-2.08c-.349-.388-1.527-2.138-1.767-2.599s-.97-2.435-1.113-2.936-.526-2.571-.601-3.087-.251-2.586-.288-3.101l-.16-3.05-.138-3.002-.12-2.986-.019-2.997.2-3.003c.06-.498.403-2.482.518-2.971a56.02 56.02 0 0 1 .861-2.89c.167-.473.939-2.328 1.144-2.786l1.306-2.705 1.335-2.699 1.278-2.793 1.227-2.962 1.274-3.135 1.487-3.203c.282-.524 1.521-2.584 1.876-3.061s1.941-2.26 2.383-2.646 2.387-1.711 2.907-1.967 2.761-1 3.335-1.11c.58-.112 2.986-.246 3.584-.218.604.029 3.031.419 3.624.556s2.921.881 3.488 1.084l3.252 1.32L50 13.119l2.812 1.151 2.689 1.001 2.6.985 2.485 1.162c.398.223 1.929 1.226 2.284 1.512s1.678 1.583 1.976 1.934a35.47 35.47 0 0 1 1.605 2.291c.238.395 1.067 2.051 1.266 2.46l1.083 2.373 1.158 2.054a14.98 14.98 0 0 0 1.534 1.602c.316.237 1.763 1.006 2.163 1.17.445.182 2.397.761 2.912.906l3.594.912 4.014 1.212c.678.249 3.395 1.396 4.035 1.741.634.341 3.068 1.923 3.61 2.375.526.439 2.411 2.433 2.795 2.974.371.524 1.535 2.824 1.731 3.418.193.584.589 3.038.604 3.648z" fill="#e7e4e3"/><path id="B" d="M23.51 27.046q.671-6.645 3.597-11.096 2.926-4.451 7.255-7.103 4.329-2.652 9.633-3.75Q49.299 4 54.725 4q4.451 0 8.718.366 4.268.366 7.865.854 3.597.488 6.219.975 2.622.488 3.841.732.732.183.732.671 0 .122-.122.732l-.915 4.39q-.122.427-.335.518-.213.091-.396.091-2.683 0-4.634.915-1.951.915-3.231 2.561-1.28 1.646-1.951 3.902-.671 2.256-.915 4.877l-3.658 44.323q-.488 5.365-2.744 10.121-2.256 4.755-6.28 8.292-4.024 3.536-9.877 5.609Q41.19 96 33.63 96q-5.06 0-9.755-.488-4.694-.488-8.535-1.158-3.841-.671-6.615-1.311-2.774-.64-3.993-.945Q4 91.915 4 91.427q0-.061.122-.671l1.036-4.634q.122-.427.335-.518.213-.091.396-.091 2.683 0 4.969-.793 2.286-.793 3.993-2.622 1.707-1.829 2.835-4.755 1.128-2.926 1.555-7.194zm18.839 63.162q4.634-1.097 8.017-3.262 3.384-2.164 5.609-4.969 2.225-2.805 3.414-5.944 1.189-3.14 1.433-6.127l3.658-44.323q.183-2.439.762-4.634.579-2.195 1.585-3.963 1.006-1.768 2.561-3.018 1.555-1.25 3.689-1.738-4.329.183-6.92 1.463-2.591 1.28-3.993 3.201-1.402 1.92-1.92 4.237-.518 2.317-.701 4.451l-3.719 44.323q-.244 2.805-1.25 5.7-1.006 2.896-2.744 5.548-1.738 2.652-4.115 4.999-2.378 2.347-5.365 4.054z" fill="#005f59"/></svg>