<svg xmlns="http://www.w3.org/2000/svg" viewBox="0 0 100 100" width="100" height="100">
  <style>
    #blob { fill: #e7e4e3; }
    #letter { fill: #005f59; }
    @media (prefers-color-scheme: dark) {
      #blob { fill: #292423; }
      #letter { fill: #46ecd4; }
    }
  </style>
  <path id="blob" d="M 96.950 50.000 C 96.965 50.609 96.667 53.065 96.530 53.662 C 96.393 54.261 95.556 56.610 95.306 57.176 C 95.057 57.742 93.858 59.926 93.534 60.452 C 93.212 60.974 91.801 62.979 91.433 63.462 C 91.070 63.940 89.541 65.774 89.147 66.215 C 88.759 66.650 87.152 68.320 86.738 68.719 C 86.329 69.112 84.646 70.612 84.213 70.966 C 83.786 71.316 82.024 72.632 81.574 72.940 C 81.130 73.244 79.307 74.372 78.847 74.638 C 78.395 74.899 76.557 75.866 76.101 76.101 C 75.654 76.331 73.865 77.204 73.427 77.430 C 72.999 77.650 71.313 78.534 70.906 78.774 C 70.503 79.011 68.941 80.018 68.563 80.293 C 68.182 80.570 66.713 81.773 66.351 82.091 C 65.978 82.419 64.524 83.814 64.152 84.166 C 63.768 84.528 62.225 86.018 61.817 86.370 C 61.404 86.728 59.684 88.127 59.226 88.429 C 58.770 88.731 56.839 89.801 56.335 89.995 C 55.836 90.187 53.734 90.703 53.206 90.742 C 52.678 90.781 50.519 90.595 50.000 90.463 C 49.471 90.329 47.401 89.429 46.920 89.141 C 46.425 88.847 44.573 87.371 44.145 86.970 C 43.713 86.566 42.135 84.764 41.763 84.311 C 41.400 83.870 40.064 82.040 39.731 81.605 C 39.417 81.197 38.207 79.608 37.882 79.255 C 37.581 78.927 36.325 77.755 35.979 77.518 C 35.643 77.288 34.181 76.583 33.790 76.452 C 33.381 76.315 31.631 75.978 31.176 75.909 C 30.690 75.835 28.658 75.654 28.142 75.593 C 27.603 75.529 25.390 75.263 24.844 75.156 C 24.292 75.047 22.078 74.492 21.551 74.298 C 21.031 74.106 19.018 73.139 18.562 72.841 C 18.114 72.549 16.474 71.152 16.122 70.761 C 15.773 70.373 14.595 68.623 14.355 68.162 C 14.115 67.701 13.385 65.727 13.242 65.226 C 13.099 64.723 12.716 62.655 12.641 62.139 C 12.567 61.624 12.390 59.553 12.353 59.038 C 12.316 58.528 12.218 56.494 12.193 55.988 C 12.168 55.486 12.077 53.486 12.055 52.986 C 12.034 52.488 11.947 50.498 11.935 50.000 C 11.924 49.501 11.901 47.502 11.916 47.003 C 11.931 46.502 12.057 44.497 12.116 44.000 C 12.176 43.502 12.519 41.518 12.634 41.029 C 12.749 40.541 13.328 38.612 13.495 38.139 C 13.662 37.666 14.434 35.811 14.639 35.353 C 14.843 34.896 15.725 33.098 15.945 32.648 C 16.165 32.197 17.063 30.404 17.280 29.949 C 17.499 29.489 18.352 27.631 18.558 27.156 C 18.769 26.672 19.579 24.695 19.785 24.194 C 19.996 23.679 20.831 21.581 21.059 21.059 C 21.291 20.525 22.267 18.376 22.546 17.856 C 22.828 17.332 24.067 15.272 24.422 14.795 C 24.776 14.321 26.363 12.535 26.805 12.149 C 27.244 11.766 29.192 10.438 29.712 10.182 C 30.232 9.925 32.473 9.182 33.047 9.072 C 33.627 8.960 36.033 8.826 36.631 8.854 C 37.235 8.883 39.662 9.273 40.255 9.410 C 40.847 9.546 43.176 10.291 43.743 10.494 C 44.299 10.692 46.464 11.592 46.995 11.814 C 47.507 12.029 49.506 12.911 50.000 13.119 C 50.476 13.320 52.347 14.088 52.812 14.270 C 53.264 14.446 55.056 15.104 55.501 15.271 C 55.938 15.435 57.676 16.076 58.101 16.256 C 58.524 16.434 60.189 17.196 60.586 17.418 C 60.984 17.641 62.515 18.644 62.870 18.930 C 63.225 19.218 64.548 20.513 64.846 20.864 C 65.145 21.217 66.211 22.758 66.451 23.155 C 66.689 23.550 67.518 25.206 67.717 25.615 C 67.910 26.011 68.608 27.610 68.800 27.988 C 68.982 28.348 69.730 29.733 69.958 30.042 C 70.179 30.342 71.191 31.419 71.492 31.644 C 71.808 31.881 73.255 32.650 73.655 32.814 C 74.100 32.996 76.052 33.575 76.567 33.720 C 77.136 33.879 79.546 34.461 80.161 34.632 C 80.814 34.815 83.512 35.601 84.175 35.844 C 84.853 36.093 87.570 37.240 88.210 37.585 C 88.844 37.926 91.278 39.508 91.820 39.960 C 92.346 40.399 94.231 42.393 94.615 42.934 C 94.986 43.458 96.150 45.758 96.346 46.352 C 96.539 46.936 96.935 49.390 96.950 50.000 Z"/>
  <path id="letter" d="M23.50960901259112 27.04572564612326Q24.180251822398937 20.400265076209408 27.106693174287606 15.949635520212055Q30.033134526176276 11.499005964214703 34.361829025844926 8.846918489065601Q38.69052352551358 6.194831013916499 43.994698475811795 5.097415506958242Q49.298873426110006 3.999999999999986 54.72498343273691 3.999999999999986Q59.17561298873426 3.999999999999986 63.44333996023857 4.365805168986071Q67.71106693174288 4.731610337972157 71.30815109343936 5.2193505632869375Q74.90523525513585 5.707090788601718 77.52683896620277 6.194831013916492Q80.14844267726971 6.682571239231265 81.36779324055667 6.926441351888656Q82.09940357852882 7.1093439363817055 82.09940357852882 7.597084161696486Q82.09940357852882 7.719019218025181 81.97746852220013 8.328694499668643L81.06295559973492 12.718356527501655Q80.94102054340622 13.14512922465208 80.72763419483101 13.236580516898599Q80.5142478462558 13.328031809145116 80.33134526176276 13.328031809145116Q77.64877402253148 13.328031809145116 75.69781312127236 14.24254473161033Q73.74685222001325 15.157057654075544 72.46653412856196 16.803180914512915Q71.18621603711067 18.449304174950285 70.51557322730285 20.70510271703114Q69.84493041749504 22.960901259111992 69.60106030483765 25.582504970178917L65.9430086149768 69.90589794565938Q65.45526838966202 75.27104042412194 63.19946984758118 80.02650762094102Q60.94367130550033 84.7819748177601 56.91981444665341 88.31809145129225Q52.89595758780649 91.85420808482438 47.04307488402915 93.9271040424122Q41.19019218025182 96.0 33.63021868787276 96.0Q28.56991385023194 96.0 23.875414181577202 95.51225977468522Q19.180914512922463 95.02451954937044 15.339960238568587 94.35387673956262Q11.499005964214712 93.68323392975479 8.724983432736913 93.04307488402915Q5.950960901259112 92.4029158383035 4.731610337972167 92.09807819748177Q4.0 91.91517561298873 4.0 91.42743538767395Q4.0 91.3664678595096 4.121935056328694 90.75679257786614L5.158383035122597 86.12326043737573Q5.280318091451292 85.69648774022531 5.493704440026507 85.60503644797879Q5.707090788601723 85.51358515573227 5.8899933730947645 85.51358515573227Q8.572564612326044 85.51358515573227 10.858846918489066 84.72100728959575Q13.145129224652088 83.92842942345924 14.85222001325381 82.09940357852882Q16.55931080185553 80.27037773359841 17.687210072895958 77.34393638170974Q18.81510934393638 74.41749502982107 19.24188204108681 70.14976805831677ZM42.34857521537442 90.208084824387Q46.98210735586481 89.11066931742876 50.365805168986086 86.94632206759442Q53.74950298210735 84.7819748177601 55.97481776010603 81.97746852220013Q58.200132538104704 79.17296222664015 59.38899933730947 76.03313452617627Q60.577866136514245 72.89330682571239 60.821736249171636 69.90589794565938L64.47978793903248 25.582504970178917Q64.66269052352551 23.143803843605028 65.24188204108681 20.94897282968853Q65.82107355864811 18.75414181577203 66.82703777335985 16.986083499005957Q67.83300198807157 15.218025182239884 69.38767395626243 13.96819085487077Q70.94234592445328 12.718356527501655 73.07620941020544 12.230616302186874Q68.74751491053678 12.41351888667991 66.15639496355202 13.693836978131202Q63.56527501656726 14.974155069582494 62.163021868787276 16.894632206759432Q60.76076872100729 18.81510934393637 60.24254473161034 21.131875414181565Q59.724320742213386 23.44864148442676 59.541418157720344 25.582504970178917L55.82239893969516 69.90589794565938Q55.57852882703777 72.71040424121935 54.57256461232605 75.60636182902584Q53.566600397614316 78.50231941683234 51.82902584493041 81.15440689198144Q50.09145129224652 83.80649436713054 47.713717693836976 86.15374420145791Q45.335984095427435 88.50099403578528 42.34857521537442 90.208084824387Z"/>
</svg>