<svg xmlns="http://www.w3.org/2000/svg" width="100" height="100" viewBox="0 0 26.459 26.459" xmlns:v="https://vecta.io/nano"><path d="M26.459 7.938c0 12.087-13.791 18.521-18.521 18.521C3.024 26.459 0 20.634 0 7.938 0 3.626 3.593 0 7.938 0c9.482 0 18.521 4.576 18.521 7.938z" fill="#b84f38"/><path d="M7.435 17.925a2.41 2.41 0 0 1-2.422-2.422c0-1.33 1.077-2.422 2.422-2.422a2.42 2.42 0 0 1 2.406 2.422c0 .222.19.396.396.396a.39.39 0 0 0 .396-.396 3.21 3.21 0 0 0-3.198-3.198 3.2 3.2 0 0 0-3.198 3.198 3.19 3.19 0 0 0 3.198 3.198 2.42 2.42 0 0 1 2.406 2.422 2.41 2.41 0 0 1-2.406 2.422 2.41 2.41 0 0 1-2.422-2.422c0-.206-.174-.38-.396-.38-.206 0-.38.174-.38.38a3.19 3.19 0 0 0 3.198 3.198 3.2 3.2 0 0 0 3.198-3.198 3.21 3.21 0 0 0-3.198-3.198zm9.293-1.409h-1.71v-3.815a.39.39 0 0 0-.396-.396c-.206 0-.38.174-.38.396v3.815h-1.726c-.206 0-.38.174-.38.396s.174.396.38.396h1.726v6.633c0 .206.174.38.38.38.222 0 .396-.174.396-.38v-6.633h1.71a.396.396 0 1 0 0-.792zm5.113 1.409a3.19 3.19 0 0 0-2.422 1.108v-.712a.39.39 0 0 0-.396-.396c-.206 0-.38.174-.38.396v5.62c0 .206.174.38.38.38.222 0 .396-.174.396-.38v-2.818c0-1.33 1.077-2.422 2.422-2.422.206 0 .38-.174.38-.38 0-.222-.174-.396-.38-.396z" transform="skewY(-25.455336)" fill="#fff" stroke="#fff" stroke-width=".742"/></svg>