<svg xmlns="http://www.w3.org/2000/svg" xmlns:xlink="http://www.w3.org/1999/xlink" width="741.626" height="276.299" viewBox="0 0 196.222 73.104" xmlns:v="https://vecta.io/nano"><style><![CDATA[.B{stroke-opacity:0}]]></style><defs><filter id="A" x="-.009" y="-.024" width="1.018" height="1.047" color-interpolation-filters="sRGB"><feFlood flood-opacity="1" flood-color="#fff"/><feComposite in2="SourceGraphic" operator="in"/><feGaussianBlur/><feOffset dx="1" dy="1"/><feComposite in="SourceGraphic" result="B"/><feColorMatrix values="0 0 0 -1 0 0 0 0 -1 0 0 0 0 -1 0 0 0 0 1 0"/><feFlood flood-opacity="1" flood-color="#b84f38"/><feComposite in2="B" operator="in"/><feGaussianBlur/><feOffset dx="1" dy="1"/><feComposite in="B"/></filter><path id="B" d="M115.824 74.076h-1.143v-2.551c0-.148-.116-.265-.265-.265a.26.26 0 0 0-.254.265v2.551h-1.154a.26.26 0 0 0-.254.265.26.26 0 0 0 .254.265h1.154v4.434c0 .138.116.254.254.254a.26.26 0 0 0 .265-.254v-4.434h1.143c.148 0 .265-.116.265-.265s-.116-.265-.265-.265z"/><path id="C" d="M119.242 75.018a2.13 2.13 0 0 0-1.619.741v-.476c0-.148-.116-.265-.265-.265a.26.26 0 0 0-.254.265v3.757c0 .138.116.254.254.254a.26.26 0 0 0 .265-.254v-1.884a1.62 1.62 0 0 1 1.619-1.619c.138 0 .254-.116.254-.254a.26.26 0 0 0-.254-.265z"/><path id="D" d="M122.65 75.536c.889 0 1.609.73 1.609 1.619a1.61 1.61 0 1 1-3.228 0 1.62 1.62 0 0 1 1.619-1.619zm0 3.757a2.14 2.14 0 0 0 2.138-2.138c0-1.175-.963-2.138-2.138-2.138a2.14 2.14 0 0 0-2.138 2.138 2.13 2.13 0 0 0 2.138 2.138z"/><path id="E" d="M142.25 78.775a1.61 1.61 0 0 1-1.619-1.619 1.62 1.62 0 0 1 1.619-1.619c.889 0 1.609.73 1.609 1.619a1.61 1.61 0 0 1-1.609 1.619zm1.873-3.757a.27.27 0 0 0-.265.265v.476a2.11 2.11 0 0 0-1.609-.741 2.14 2.14 0 0 0-2.138 2.138 2.13 2.13 0 0 0 2.138 2.138 2.11 2.11 0 0 0 1.609-.741v.487c0 .138.127.254.265.254a.26.26 0 0 0 .265-.254v-3.757c0-.148-.116-.265-.265-.265z"/><path id="F" d="M149.997 76.013c.571-.561 1.46-.624 2.085-.169l-2.254 2.254c-.455-.624-.392-1.513.169-2.085zm2.286 2.286a1.61 1.61 0 0 1-2.085.169l2.455-2.455c.106-.095.106-.265 0-.37a2.16 2.16 0 0 0-3.027 0 2.16 2.16 0 0 0 0 3.027h0c.423.423.963.624 1.513.624s1.101-.201 1.513-.624c.106-.095.106-.265 0-.37-.095-.095-.265-.095-.37 0z"/><path id="G" d="M108.828 81.04a.26.26 0 0 0-.254.265v.942c0 .138.116.254.254.254a.26.26 0 0 0 .265-.254v-.942c0-.148-.116-.265-.265-.265zm0 2.72c-.138 0-.254.116-.254.254v3.757a.26.26 0 0 0 .254.265c.148 0 .265-.116.265-.265v-3.757a.26.26 0 0 0-.265-.254z"/></defs><g transform="translate(-2.835 -92.317)" filter="url(#A)"><g transform="translate(-.405 7.211)"><g transform="matrix(4.292326 0 0 4.15764 -461.10873 -209.49033)" stroke="#3e474e"><g fill="#3e474e" stroke-width=".796" class="B"><path d="M110.542 76.902c-.37 0-.677-.307-.677-.677 0-.381.307-.677.677-.677h.942c.138 0 .254-.127.254-.265a.26.26 0 0 0-.254-.265h-.942c-.667 0-1.196.54-1.196 1.206 0 .656.529 1.196 1.196 1.196.37 0 .677.307.677.677s-.307.677-.677.677h-.942a.26.26 0 0 0-.254.265c0 .138.116.254.254.254h.942c.656 0 1.196-.529 1.196-1.196a1.2 1.2 0 0 0-1.196-1.196z"/><use xlink:href="#B"/><use xlink:href="#C"/><use xlink:href="#D"/><use xlink:href="#D" x="5.281"/><path d="M138.842 75.018a.27.27 0 0 0-.265.265v1.873a1.61 1.61 0 1 1-3.228 0v-1.873c0-.148-.116-.265-.265-.265a.27.27 0 0 0-.265.265v1.873a1.61 1.61 0 1 1-3.228 0v-1.873c0-.148-.116-.265-.265-.265a.26.26 0 0 0-.254.265v1.873a2.13 2.13 0 0 0 2.138 2.138c.804 0 1.513-.444 1.873-1.111a2.13 2.13 0 0 0 1.884 1.111 2.14 2.14 0 0 0 2.138-2.138v-1.873c0-.148-.116-.265-.265-.265z"/><use xlink:href="#E"/><use xlink:href="#C" x="28.289"/><use xlink:href="#F"/><use xlink:href="#G"/><path d="M112.236 83.749a2.13 2.13 0 0 0-1.619.741v-.476c0-.148-.116-.265-.265-.265a.26.26 0 0 0-.254.265v3.757c0 .138.116.254.254.254a.26.26 0 0 0 .265-.254v-1.884a1.62 1.62 0 0 1 1.619-1.619c.889 0 1.609.73 1.609 1.619v1.884c0 .138.127.254.265.254a.26.26 0 0 0 .265-.254v-1.884c0-1.175-.963-2.138-2.138-2.138z"/><use xlink:href="#B" x="2.624" y="8.731"/><path d="M120.925 84.744c.572-.561 1.46-.624 2.085-.169l-2.254 2.254c-.455-.624-.392-1.513.169-2.085zm2.286 2.286a1.61 1.61 0 0 1-2.085.169l2.455-2.455c.106-.095.106-.265 0-.37a2.16 2.16 0 0 0-3.027 0 2.16 2.16 0 0 0 0 3.027h0c.423.423.963.624 1.513.624s1.101-.201 1.513-.624c.106-.095.106-.265 0-.37-.095-.095-.265-.095-.37 0z"/><use xlink:href="#C" x="7.588" y="8.731"/><use xlink:href="#E" x="-12.012" y="8.731"/><path d="M136.863 87.03a1.61 1.61 0 0 1-2.286 0 1.63 1.63 0 0 1 0-2.286 1.63 1.63 0 0 1 2.286 0c.106.106.275.106.37 0 .106-.095.106-.265 0-.37a2.16 2.16 0 0 0-3.027 0 2.16 2.16 0 0 0 0 3.027h0c.423.423.963.624 1.513.624s1.101-.201 1.513-.624c.106-.095.106-.265 0-.37-.095-.095-.265-.095-.37 0z"/><use xlink:href="#B" x="25.59" y="8.731"/><use xlink:href="#G" x="34.12"/><path d="M148.388 83.781c-.138-.064-.286-.011-.349.116l-1.651 3.291-1.64-3.291c-.064-.127-.222-.18-.349-.116-.138.064-.18.222-.116.349l1.873 3.757c.011.011.011.011.011.021.011 0 .011.011.021.021l.042.042c.011.011.021.021.042.021.011.011.021.011.021.021h.021c.021.011.021.011.032.011h.042 0 .032.032c.021-.011.032-.011.032-.011l.021-.011c.021-.011.032-.021.042-.032.021-.011.032-.021.042-.032.011-.021.021-.032.021-.032 0-.011.011-.011.011-.021l1.884-3.757c.064-.127.011-.286-.116-.349z"/><use xlink:href="#F" x="0.772" y="8.731"/></g><g fill="none" stroke-width=".26" stroke-linecap="round"><path d="M109.87 81.55h6.099m2.117 0h20.862m2.117 0h.848m2.117 0h9.137"/><path d="M109.87 80.919h6.099m2.117 0h20.862m2.117 0h.848m2.117 0h9.137"/></g></g></g></g></svg>