<svg xmlns="http://www.w3.org/2000/svg" xmlns:xlink="http://www.w3.org/1999/xlink" width="362.039" height="158.74" viewBox="0 0 95.79 42" xmlns:v="https://vecta.io/nano"><style><![CDATA[.I{stroke-width:.565}.J{stroke-width:.5}]]></style><g transform="translate(10.17 .417)" stroke="#000"><g fill="none" class="I"><g transform="matrix(0 .8846 .8846 0 51.240006 10.810488)"><path d="M-1.805 18.612h-5.774"/><use xlink:href="#A"/><circle cx="7.925" cy="18.612" r=".346" transform="scale(-1 1)"/></g><g transform="matrix(0 .8846 .8846 0 49.041053 10.810488)"><path d="M-1.805 18.612h-5.774l-5.839-5.839"/><use xlink:href="#A"/></g><g transform="matrix(0 .8846 .8846 0 44.360042 10.810488)"><path d="M-13.418 12.773l8.964 8.964h18.156v-4.208"/><circle cx="13.703" cy="-17.183" r=".346" transform="scale(1 -1)"/></g><g transform="matrix(0 .8846 .8846 0 41.551435 10.810488)"><circle cx="10.894" cy="-20.358" r=".346" transform="scale(1 -1)"/><path d="M10.894 20.704l-.003 1.033H-4.454l-8.964-8.964"/></g><g transform="matrix(0 .8846 .8846 0 53.438959 10.810488)"><use xlink:href="#B"/><use xlink:href="#A"/></g><g transform="matrix(0 .8846 .8846 0 55.637912 10.810488)"><use xlink:href="#B"/><use xlink:href="#A"/></g><g transform="matrix(0 .8846 .8846 0 57.836865 10.810488)"><use xlink:href="#A"/><path d="M-4.743 31.861l-.024-13.249h2.962"/></g><g transform="matrix(0 -.8846 .8846 0 57.836865 14.548678)"><use xlink:href="#A"/><path d="M-1.805 18.612h-4.868v4.375l-3.896 3.896h-3.944l-2.099 2.099v2.763"/></g><g transform="matrix(0 -.8846 .8846 0 55.637912 14.548676)"><use xlink:href="#A"/><path d="M-1.805 18.612h-6.868l-3.175 3.175v4.939"/><circle cx="-27.072" cy="-11.847" r=".346" transform="rotate(270)"/></g><g transform="matrix(0 -.8846 .8846 0 53.438959 14.548676)"><use xlink:href="#A"/><path d="M-1.805 18.612h-8.748l-10.769 10.769v7.399"/></g><g transform="matrix(0 -.8846 .8846 0 51.240006 14.548676)"><use xlink:href="#A"/><path d="M-1.805 18.612H-12.28l-13.307 13.307v7.378"/></g><g transform="matrix(0 -.8846 .8846 0 49.041053 14.548676)"><use xlink:href="#A"/><path d="M-1.805 18.612h-12.28l-15.784 15.784v7.322"/></g><g transform="matrix(0 -.8846 -.8846 0 84.168294 -5.695225)"><path d="M-5.235 18.612h-2.344"/><circle cx="7.925" cy="18.612" r=".346" transform="scale(-1 1)"/></g><g transform="matrix(-.8846 0 0 .8846 4.56368 -13.442479)"><path d="M-7.579 18.612H5.888l4.337-4.337"/><circle cx="7.925" cy="18.612" r=".346" transform="scale(-1 1)"/></g><g transform="matrix(-.8846 0 0 .8846 4.56368 -10.633872)"><path d="M-7.579 18.612H5.888l7.551-7.551"/><circle cx="7.925" cy="18.612" r=".346" transform="scale(-1 1)"/></g><g transform="matrix(0 -.8846 -.8846 0 57.629227 -2.876812)"><path d="M-2.177 18.612h-5.402"/><circle cx="7.925" cy="18.612" r=".346" transform="scale(-1 1)"/></g><g transform="matrix(0 -.8846 -.8846 0 55.288721 -2.876812)"><path d="M-7.579 18.612h2.136l2.646 2.646v21.925L-1.28 44.7"/><circle cx="7.925" cy="18.612" r=".346" transform="scale(-1 1)"/></g><circle cx="7.925" cy="18.612" r=".346" transform="matrix(0 .8846 -.8846 0 52.948215 -2.876812)"/><g transform="matrix(-.8846 0 0 .8846 27.133153 -12.330544)"><path d="M-7.579 18.612h18.933l5.802-5.802"/><circle cx="7.925" cy="18.612" r=".346" transform="scale(-1 1)"/></g><g transform="matrix(-.8846 0 0 .8846 52.549491 -3.999565)"><path d="M-7.579 18.612h2.136l15.29-15.29"/><circle cx="7.925" cy="18.612" r=".346" transform="scale(-1 1)"/></g><g transform="matrix(.8846 0 0 -.8846 90.664186 41.465831)"><path d="M-5.235 18.612h-2.344"/><circle cx="7.925" cy="18.612" r=".346" transform="scale(-1 1)"/></g></g><g transform="matrix(.8846 0 0 .8846 16.732562 22.473186)" class="I"><path d="M69.142-14.752h6.875v6.875h-6.875z"/><g fill="none"><path d="M72.58-7.877v2.968l3.004 3.004h2.758m-9.2-9.409H55.154"/><circle cx="-11.314" cy="-54.808" r=".346" transform="rotate(90)"/></g></g><g fill="none"><g transform="rotate(90)" class="J"><circle cx="20.447" cy="-55.671" r=".306"/><circle cx="6.942" cy="-41.165" r=".306"/><circle cx="6.942" cy="-38.825" r=".306"/><circle cx="6.942" cy="-36.484" r=".306"/><circle cx="6.942" cy="-34.144" r=".306"/><circle cx="22.932" cy="-55.671" r=".306"/></g><path d="M14.125-1.026l2.964 2.964h19.395v1.889" class="J"/><g transform="matrix(.8846 0 0 .8846 16.732562 22.473186)" class="I"><circle cx="7.925" cy="18.612" r=".346" transform="rotate(45 58.505 45.071)"/><path d="M41.204-9.649l-6.131-6.131h-17.27l-2.842-2.842H.403l-6.234-6.234h-13.814l-1.564-1.564"/></g><circle cx="7.925" cy="18.612" r=".346" transform="matrix(.625507 .625507 -.625507 .625507 57.742465 -2.444496)" class="I"/><path d="M50.841 13.938l-3.083-3.083H32.481L30.14 8.514H-.645l-9.473-9.473" class="J"/></g></g><defs><path id="A" d="M-1.805 18.163h1.454v.898h-1.454z"/><path id="B" d="M-1.805 18.612h-5.774l-1.964 1.964h-3.663"/></defs></svg>